<svg width="24" height="24" viewBox="0 0 24 24" fill="none" xmlns="http://www.w3.org/2000/svg">
<path d="M11.9999 2C6.48993 2 1.99993 6.49 1.99993 12C1.99993 17.51 6.48993 22 11.9999 22C17.5099 22 21.9999 17.51 21.9999 12C21.9999 6.49 17.5099 2 11.9999 2ZM15.9999 12.75H12.7499V16C12.7499 16.41 12.4099 16.75 11.9999 16.75C11.5899 16.75 11.2499 16.41 11.2499 16V12.75H7.99993C7.58993 12.75 7.24993 12.41 7.24993 12C7.24993 11.59 7.58993 11.25 7.99993 11.25H11.2499V8C11.2499 7.59 11.5899 7.25 11.9999 7.25C12.4099 7.25 12.7499 7.59 12.7499 8V11.25H15.9999C16.4099 11.25 16.7499 11.59 16.7499 12C16.7499 12.41 16.4099 12.75 15.9999 12.75Z" fill="url(#paint0_linear_74_133)"/>
<defs>
<linearGradient id="paint0_linear_74_133" x1="-0.500068" y1="-1.33333" x2="19.9166" y2="19.0833" gradientUnits="userSpaceOnUse">
<stop stop-color="#00B091" stop-opacity="0"/>
<stop offset="1" stop-color="#00B091"/>
</linearGradient>
</defs>
</svg>
