<svg width="24" height="24" viewBox="0 0 24 24" fill="none" xmlns="http://www.w3.org/2000/svg">
<path d="M7.8 22.15C5.15 22.15 2.99 20 2.99 17.34V14.5C2.99 13.83 3.65 13.38 4.28 13.6C4.54 13.69 4.8 13.75 5.07 13.79C5.19 13.81 5.31 13.83 5.43 13.83C5.58 13.85 5.74 13.86 5.89 13.86C7 13.86 8.1 13.45 8.97 12.74C9.8 13.45 10.87 13.86 12.01 13.86C13.15 13.86 14.21 13.47 15.04 12.75C15.9 13.45 16.98 13.86 18.08 13.86C18.25 13.86 18.43 13.85 18.59 13.83C18.71 13.82 18.81 13.81 18.92 13.79C19.22 13.75 19.49 13.67 19.76 13.58C20.38 13.37 21.03 13.83 21.03 14.48V17.34C21.03 19.99 18.88 22.15 16.22 22.15H7.8Z" fill="url(#paint0_linear_74_48)"/>
<path d="M21.98 8.58998L21.7 5.92998C21.3 3.02998 19.98 1.84998 17.17 1.84998H6.82C4 1.84998 2.69 3.02998 2.28 5.95998L2.02 8.59998C1.92 9.62998 2.2 10.63 2.81 11.41C3.54 12.36 4.66 12.9 5.91 12.9C7.12 12.9 8.28 12.29 9.02 11.32C9.67 12.29 10.78 12.9 12.02 12.9C13.26 12.9 14.35 12.32 15.01 11.36C15.75 12.31 16.9 12.9 18.09 12.9C19.37 12.9 20.52 12.33 21.24 11.33C21.82 10.56 22.08 9.58998 21.98 8.58998ZM13.5 7.72998H10.5C10.09 7.72998 9.75 7.39998 9.75 6.97998C9.75 6.56998 10.09 6.22998 10.5 6.22998H13.5C13.91 6.22998 14.25 6.56998 14.25 6.97998C14.25 7.39998 13.91 7.72998 13.5 7.72998Z" fill="url(#paint1_linear_74_48)"/>
<defs>
<linearGradient id="paint0_linear_74_48" x1="0.734998" y1="11.1717" x2="8.61291" y2="26.2745" gradientUnits="userSpaceOnUse">
<stop stop-color="#00AB4F" stop-opacity="0"/>
<stop offset="1" stop-color="#00AB4F"/>
</linearGradient>
<linearGradient id="paint1_linear_74_48" x1="-0.499954" y1="0.00830944" x2="9.04941" y2="17.2929" gradientUnits="userSpaceOnUse">
<stop stop-color="#00AB4F" stop-opacity="0"/>
<stop offset="1" stop-color="#00AB4F"/>
</linearGradient>
</defs>
</svg>
